{"title":"Schlock! The Secret History of American Movies (2001)","uid":4710606,"size":732672160,"categoryP":"video","categoryS":"movies","magnet":"?xt=urn:btih:9d3218d001e6643b4b7dd49e04f925bab5fcb1fa&amp;dn=Schlock%21+The+Secret+History+of+American+Movies+%282001%29&amp;tr=udp%3A%2F%2Ftracker.openbittorrent.com%3A80&amp;tr=udp%3A%2F%2Fopen.demonii.com%3A1337&amp;tr=udp%3A%2F%2Ftracker.coppersurfer.tk%3A6969&amp;tr=udp%3A%2F%2Fexodus.desync.com%3A6969","seeders":1,"leechers":0,"uploader":"muaddib1406","files":2,"time":1234006011,"description":"Schlock! The Secret History of American Movies (2001)\n &lt;a href=&quot;\nhttp://www.imdb.com/title/tt0286944/&quot; rel=&quot;nofollow&quot; target=&quot;_NEW&quot;&gt;\nhttp://www.imdb.com/title/tt0286944/&lt;/a&gt;\n\nYou've heard of Hollywood, a town of tinsel and glamour, the town of Paramount, Columbia and MGM. But there is another Hollywood, a place where maverick independent EXPLOITATION FILMMAKERS went toe to toe with the big guys and came out on top! &quot;SCHLOCK! THE SECRET HISTORY OF AMERICAN MOVIES&quot; takes you behind the scenes with the legendary EXPLOITATION and SEXPLOITATION filmmakers of those golden &quot;DRIVE-IN&quot; MOVIE days. It's sexy! It's strange! And every word is true!\n\n\nGeneral\nFormat : AVI\nFormat/Info : Audio Video Interleave\nFile size : 699 MiB\nDuration : 1h 29mn\nOverall bit rate : 1 089 Kbps\nWriting application : VirtualDubMod 1.5.4.1 (build 2178/release)\nWriting library : VirtualDubMod build 2178/release\n\nVideo\nFormat : MPEG-4 Visual\nFormat profile : Streaming Video@L1\nFormat settings, BVOP : Yes\nFormat settings, QPel : No\nFormat settings, GMC : No warppoints\nFormat settings, Matrix : Custom\nCodec ID : XVID\nCodec ID/Hint : XviD\nDuration : 1h 29mn\nBit rate : 969 Kbps\nWidth : 624 pixels\nHeight : 464 pixels\nDisplay aspect ratio : 4/3\nFrame rate : 29.970 fps\nResolution : 24 bits\nColorimetry : 4:2:0\nScan type : Progressive\nBits/(Pixel*Frame) : 0.112\nStream size : 621 MiB (89%)\nWriting library : XviD 1.2.0SMP (UTC 2006-01-08)\n\nAudio\nFormat : MPEG Audio\nFormat version : Version 1\nFormat profile : Layer 3\nCodec ID : 55\nCodec ID/Hint : MP3\nDuration : 1h 29mn\nBit rate mode : Variable\nBit rate : 107 Kbps\nMinimum bit rate : 128 Kbps\nChannel(s) : 2 channels\nSampling rate : 48.0 KHz\nResolution : 16 bits\nStream size : 68.4 MiB (10%)\nAlignment : Aligned on interleaves\nInterleave, duration : 24 ms (0.72 video frame)\nInterleave, preload duration : 590 ms\nWriting library : LAME3.97b\nEncoding settings : ABR\nLanguage : English\n","torrent":{"xt":"urn:btih:9d3218d001e6643b4b7dd49e04f925bab5fcb1fa","amp;dn":"Schlock%21+The+Secret+History+of+American+Movies+%282001%29","amp;tr":["udp%3A%2F%2Ftracker.openbittorrent.com%3A80","udp%3A%2F%2Fopen.demonii.com%3A1337","udp%3A%2F%2Ftracker.coppersurfer.tk%3A6969","udp%3A%2F%2Fexodus.desync.com%3A6969"],"infoHash":"9d3218d001e6643b4b7dd49e04f925bab5fcb1fa","infoHashBuffer":{"type":"Buffer","data":[157,50,24,208,1,230,100,59,75,125,212,158,4,249,37,186,181,252,177,250]},"announce":[],"urlList":[]}}